<svg version="1.1" id="Layer_1" xmlns="http://www.w3.org/2000/svg" xmlns:xlink="http://www.w3.org/1999/xlink" x="0px" y="0px"
	 width="100%" viewBox="0 0 1054 998" enable-background="new 0 0 1054 998" xml:space="preserve">
<path fill="#FFFEFE" opacity="1.000000" stroke="none" 
	d="
M715.000000,999.000000 
	C476.695618,999.000000 238.891235,999.000000 1.043421,999.000000 
	C1.043421,666.402771 1.043421,333.805542 1.043421,1.104156 
	C352.221130,1.104156 703.442261,1.104156 1054.831787,1.104156 
	C1054.831787,333.666595 1054.831787,666.333313 1054.831787,999.000000 
	C941.805420,999.000000 828.652710,999.000000 715.000000,999.000000 
M334.245361,182.671738 
	C329.368164,193.035355 328.508087,204.240921 328.513794,215.334625 
	C328.554291,293.965271 328.961731,372.595612 329.081055,451.226318 
	C329.099152,463.167145 331.734985,474.359528 337.377869,484.689514 
	C357.021332,520.649231 399.928131,531.287842 432.622223,512.352478 
	C455.377014,499.173553 467.590240,478.785889 467.660675,451.934174 
	C467.717926,430.107239 467.673431,408.280090 467.719543,386.453125 
	C467.723419,384.611664 468.071930,382.770905 468.374207,379.817139 
	C470.491730,381.419159 471.746246,382.151611 472.731018,383.150085 
	C477.398743,387.882874 481.969757,392.710815 486.617004,397.464050 
	C518.755005,430.335358 550.469971,463.636017 583.197205,495.910065 
	C605.916260,518.314453 633.498047,523.910767 663.782349,513.540710 
	C687.632141,505.373962 706.794678,479.083618 706.848877,453.949463 
	C707.027832,370.974335 706.927612,287.998138 706.654724,205.023285 
	C706.634949,199.022766 705.017761,192.803650 703.030151,187.072189 
	C694.426575,162.262222 668.322388,138.552200 633.922668,140.826263 
	C617.724243,141.897095 603.892517,147.492661 591.966492,158.069229 
	C575.828674,172.380951 568.390869,190.624817 568.414368,212.067368 
	C568.436646,232.394867 568.446228,252.722504 568.363281,273.049683 
	C568.356445,274.728912 567.599121,276.405029 567.190491,278.082611 
	C565.680420,277.274689 563.888062,276.758545 562.704102,275.613434 
	C551.570801,264.845184 540.484619,254.026596 529.493103,243.113541 
	C502.062103,215.878281 474.556488,188.716171 447.338043,161.269577 
	C429.948639,143.734406 408.714417,137.550034 385.226318,141.762131 
	C361.755493,145.971146 344.753998,160.168320 334.245361,182.671738 
M438.040161,729.459473 
	C451.226929,742.661804 464.367981,755.910400 477.637421,769.029053 
	C480.436127,771.795959 481.847534,774.725891 481.696259,778.736633 
	C481.451447,785.225830 481.751007,791.733887 481.599335,798.228821 
	C481.528778,801.249939 482.746002,802.518311 485.661255,802.496277 
	C489.660004,802.466125 493.673248,802.290894 497.654480,802.559998 
	C501.977966,802.852173 503.334778,801.295044 503.308624,796.865173 
	C503.125488,765.872681 503.215454,734.878662 503.217224,703.885071 
	C503.218140,687.887695 503.220215,687.931580 487.002319,688.972351 
	C483.168976,689.218384 481.462341,690.589966 481.544434,694.805420 
	C481.794250,707.631165 481.688263,720.465515 481.561310,733.294922 
	C481.543335,735.108459 480.637848,736.913208 480.143127,738.721985 
	C478.498016,737.748108 476.568329,737.061096 475.252167,735.755554 
	C463.307068,723.906799 450.832916,712.503540 439.814789,699.837891 
	C431.962036,690.810974 423.245880,687.708984 411.826111,688.871460 
	C403.722168,689.696472 403.086243,689.754944 403.083618,697.933838 
	C403.073456,729.927185 403.077118,761.920532 403.086761,793.913879 
	C403.087189,795.410156 403.184967,796.906799 403.253754,798.402588 
	C403.383636,801.226868 404.774536,802.588989 407.696106,802.520691 
	C411.859589,802.423218 416.030029,802.397095 420.191711,802.526733 
	C423.291748,802.623352 424.901733,801.459229 424.835663,798.225769 
	C424.798309,796.397217 424.985077,794.565186 424.986053,792.734680 
	C424.998138,770.239319 424.977478,747.743958 425.024384,725.248718 
	C425.028564,723.248413 425.446289,721.249023 425.671967,719.249207 
	C426.152283,719.040100 426.632599,718.830994 427.112915,718.621887 
	C430.586853,722.069275 434.060760,725.516724 438.040161,729.459473 
M223.029297,759.470581 
	C224.087311,760.533203 225.027939,761.755615 226.222107,762.632874 
	C234.739731,768.889954 237.582947,776.997009 236.909485,787.663818 
	C235.964050,802.638489 236.671494,802.523254 252.108902,802.604126 
	C256.794067,802.628662 258.397064,801.399597 258.360596,796.444275 
	C258.133698,765.618713 258.244415,734.790527 258.243530,703.963257 
	C258.243103,687.959961 258.243469,687.960022 242.108795,688.999207 
	C241.942566,689.009949 241.775757,689.010986 241.609253,689.017822 
	C238.275726,689.155029 236.439545,690.424622 236.612717,694.230713 
	C236.869980,699.884399 236.673645,705.558777 236.670685,711.224304 
	C236.666611,719.056091 236.728241,726.888977 236.595612,734.718567 
	C236.573105,736.047729 235.717087,737.362671 235.246155,738.684204 
	C233.959183,738.088928 232.606216,737.600647 231.407913,736.861572 
	C230.578949,736.350403 229.958801,735.497681 229.253357,734.789551 
	C215.380432,720.861938 201.532990,706.908813 187.600906,693.040649 
	C186.131668,691.578125 184.229980,689.708923 182.419327,689.581055 
	C175.794144,689.113281 169.122223,689.238403 162.468613,689.273376 
	C159.531036,689.288818 158.476578,691.113464 158.561142,693.912537 
	C158.656708,697.075562 158.569855,700.243896 158.569824,703.409912 
	C158.569489,734.403809 158.671722,765.398438 158.467850,796.390991 
	C158.435486,801.311157 160.044327,803.021484 164.775482,802.561829 
	C167.581863,802.289185 170.436279,802.524231 173.268951,802.506653 
	C179.952667,802.465149 180.015564,802.444824 180.022186,795.847229 
	C180.045731,772.351807 180.018143,748.856445 180.061966,725.361084 
	C180.065735,723.345581 180.453384,721.330688 180.662704,719.315552 
	C181.165771,719.075684 181.668839,718.835754 182.171906,718.595825 
	C195.622955,732.055420 209.074005,745.515015 223.029297,759.470581 
M790.310059,689.287109 
	C786.146179,689.286987 781.982117,689.267517 777.818359,689.291138 
	C771.256714,689.328430 770.802612,689.781250 770.800232,696.511292 
	C770.789734,726.824341 770.795227,757.137390 770.794983,787.450439 
	C770.794861,802.686218 770.795837,802.514038 786.145630,802.595520 
	C790.907471,802.620789 792.440186,801.230774 792.395325,796.374146 
	C792.174072,772.392212 792.280273,748.407104 792.333862,724.423279 
	C792.338257,722.464844 792.814270,720.507446 793.185974,717.674561 
	C795.121094,719.248535 796.210571,719.984680 797.122009,720.898376 
	C813.217285,737.032532 829.388123,753.093994 845.249573,769.455383 
	C847.294739,771.565002 848.479980,775.190186 848.725525,778.221802 
	C849.248352,784.675354 848.993835,791.202393 848.853394,797.694946 
	C848.778687,801.147278 850.279297,802.565979 853.609680,802.504761 
	C857.106018,802.440369 860.628662,802.236328 864.096558,802.558655 
	C869.034851,803.017700 870.667908,801.337524 870.626953,796.163818 
	C870.383911,765.519592 870.505127,734.872498 870.504211,704.226318 
	C870.503784,688.995239 870.504761,689.133789 855.069824,689.204163 
	C850.213196,689.226318 848.723816,691.097656 848.808655,695.780640 
	C849.037781,708.434631 848.937500,721.096130 848.815002,733.753113 
	C848.799133,735.387329 847.880615,737.012817 847.380188,738.642273 
	C845.861023,737.810608 844.044128,737.276917 842.868103,736.101868 
	C828.627075,721.873108 814.390930,707.636597 800.387573,693.175415 
	C797.690979,690.390625 794.995483,688.937744 790.310059,689.287109 
M682.195190,702.357788 
	C674.999146,719.007812 667.803955,735.658264 660.606934,752.307861 
	C654.200623,767.128174 647.736511,781.923950 641.418091,796.781738 
	C639.444092,801.423401 640.178040,802.403137 645.109741,802.482727 
	C649.441895,802.552734 653.787903,802.299255 658.105713,802.557800 
	C661.765869,802.777039 663.449524,800.992249 664.782715,797.892151 
	C675.416870,773.165100 686.136658,748.474731 696.913879,723.809753 
	C697.548706,722.356995 698.906860,721.220337 700.616638,719.071655 
	C703.669067,725.938538 706.268799,731.667358 708.771179,737.438293 
	C717.505676,757.581299 726.180969,777.750061 734.969421,797.869324 
	C735.657715,799.445068 736.983337,801.875793 738.119324,801.937256 
	C745.115906,802.315430 752.143127,802.126953 759.953674,802.126953 
	C758.795837,798.705627 758.152527,796.319946 757.195557,794.067505 
	C754.275269,787.193420 751.227478,780.373474 748.241394,773.527222 
	C737.079590,747.936157 725.610352,722.471497 714.988708,696.658020 
	C712.412659,690.397705 709.050781,689.463989 703.133179,689.055176 
	C692.819702,688.342651 684.686279,689.727905 682.195190,702.357788 
M550.837769,795.532959 
	C559.708801,800.350647 569.009521,803.144592 579.288269,802.904297 
	C592.771118,802.588928 606.268677,802.724548 619.756653,802.908386 
	C624.223816,802.969238 625.813904,801.529602 625.789917,796.858276 
	C625.614441,762.716858 625.612427,728.573608 625.795715,694.432251 
	C625.821472,689.636475 623.941772,688.389709 619.626160,688.437744 
	C606.970093,688.578674 594.309570,688.367981 581.654785,688.558960 
	C576.350464,688.638916 570.890503,688.708313 565.790344,689.960144 
	C553.372009,693.008240 542.832825,699.535889 534.737122,709.537292 
	C522.538330,724.607666 518.617249,741.617065 523.595398,760.476929 
	C527.623779,775.738586 537.029785,786.956238 550.837769,795.532959 
M276.567688,780.054688 
	C274.264313,785.571899 272.038513,791.123169 269.634613,796.596252 
	C267.453522,801.562012 268.111267,803.297668 273.465302,803.710449 
	C278.931671,804.131897 284.511993,804.306458 289.922211,803.629089 
	C292.136261,803.351807 294.898834,800.968750 295.923462,798.830505 
	C299.838806,790.659363 303.099335,782.176819 306.696106,773.850159 
	C312.106445,761.325195 317.545441,748.812012 323.074066,736.338989 
	C325.071350,731.832947 327.361908,727.456848 329.812592,722.416931 
	C330.808502,723.950256 331.354370,724.578857 331.669983,725.307190 
	C342.299408,749.837891 353.040497,774.322083 363.369049,798.979004 
	C364.862213,802.543579 367.234802,803.464355 370.092194,803.651917 
	C375.564880,804.011108 381.100159,804.107971 386.564514,803.704590 
	C391.820374,803.316467 392.441620,801.648132 390.220581,796.891296 
	C387.443176,790.942749 384.709564,784.970581 382.112457,778.941650 
	C374.245331,760.678833 366.472717,742.375366 358.624359,724.104431 
	C354.138031,713.660278 349.325500,703.346680 345.184021,692.769104 
	C343.735138,689.068542 341.568542,687.298706 338.041077,687.143860 
	C332.719299,686.910156 327.302338,686.545654 322.080017,687.301636 
	C319.412994,687.687744 315.970795,689.827087 314.794342,692.145691 
	C310.221527,701.158508 306.337677,710.527039 302.341797,719.825256 
	C293.819672,739.655640 285.387665,759.524780 276.567688,780.054688 
z"/>
<path fill="#D75F5A" opacity="1.000000" stroke="none" 
	d="
M334.347656,182.303406 
	C344.753998,160.168320 361.755493,145.971146 385.226318,141.762131 
	C408.714417,137.550034 429.948639,143.734406 447.338043,161.269577 
	C474.556488,188.716171 502.062103,215.878281 529.493103,243.113541 
	C540.484619,254.026596 551.570801,264.845184 562.704102,275.613434 
	C563.888062,276.758545 565.680420,277.274689 567.190491,278.082611 
	C567.599121,276.405029 568.356445,274.728912 568.363281,273.049683 
	C568.446228,252.722504 568.436646,232.394867 568.414368,212.067368 
	C568.390869,190.624817 575.828674,172.380951 591.966492,158.069229 
	C603.892517,147.492661 617.724243,141.897095 633.922668,140.826263 
	C668.322388,138.552200 694.426575,162.262222 703.030151,187.072189 
	C705.017761,192.803650 706.634949,199.022766 706.654724,205.023285 
	C706.927612,287.998138 707.027832,370.974335 706.848877,453.949463 
	C706.794678,479.083618 687.632141,505.373962 663.782349,513.540710 
	C633.498047,523.910767 605.916260,518.314453 583.197205,495.910065 
	C550.469971,463.636017 518.755005,430.335358 486.617004,397.464050 
	C481.969757,392.710815 477.398743,387.882874 472.731018,383.150085 
	C471.746246,382.151611 470.491730,381.419159 468.374207,379.817139 
	C468.071930,382.770905 467.723419,384.611664 467.719543,386.453125 
	C467.673431,408.280090 467.717926,430.107239 467.660675,451.934174 
	C467.590240,478.785889 455.377014,499.173553 432.622223,512.352478 
	C399.928131,531.287842 357.021332,520.649231 337.377869,484.689514 
	C331.734985,474.359528 329.099152,463.167145 329.081055,451.226318 
	C328.961731,372.595612 328.554291,293.965271 328.513794,215.334625 
	C328.508087,204.240921 329.368164,193.035355 334.347656,182.303406 
M428.993896,338.506165 
	C424.622314,334.162872 420.368774,329.692383 415.855743,325.501404 
	C404.778809,315.214874 393.833069,304.840240 380.677338,297.004425 
	C367.020081,288.869934 351.116455,297.311340 347.566101,308.988892 
	C345.992310,314.165375 344.999695,319.733154 344.969666,325.130127 
	C344.744568,365.600372 344.734436,406.072693 344.907288,446.543304 
	C344.933960,452.795837 345.598450,459.198090 347.066498,465.265320 
	C353.041016,489.957001 375.470093,506.448120 400.370758,505.695190 
	C429.216766,504.822876 451.778107,480.891785 451.904938,451.942383 
	C452.029724,423.463013 452.034393,394.981903 451.795868,366.504028 
	C451.772369,363.695801 450.332031,360.316772 448.430603,358.214661 
	C442.404663,351.552765 435.848175,345.370758 428.993896,338.506165 
M673.163208,170.354813 
	C658.414185,156.952225 640.855225,153.664902 622.459778,159.023590 
	C598.298584,166.061844 584.364258,186.236008 584.277405,211.448502 
	C584.183838,238.603592 584.167603,265.759979 584.395264,292.913513 
	C584.417603,295.580231 585.694153,298.917511 587.553467,300.781494 
	C604.607727,317.878387 621.781921,334.862518 639.248657,351.536499 
	C643.878479,355.956238 649.288452,359.856201 654.948303,362.842407 
	C670.232666,370.906677 686.749451,364.186310 689.670837,348.893524 
	C690.943054,342.233704 691.621277,335.370483 691.693176,328.590332 
	C691.834473,315.279968 691.236450,301.963715 691.170532,288.648804 
	C691.038513,261.993713 691.212708,235.336426 690.956116,208.682983 
	C690.811279,193.636475 684.864868,180.964676 673.163208,170.354813 
z"/>
<path fill="#D83C2E" opacity="1.000000" stroke="none" 
	d="
M437.787415,729.211792 
	C434.060760,725.516724 430.586853,722.069275 427.112915,718.621887 
	C426.632599,718.830994 426.152283,719.040100 425.671967,719.249207 
	C425.446289,721.249023 425.028564,723.248413 425.024384,725.248718 
	C424.977478,747.743958 424.998138,770.239319 424.986053,792.734680 
	C424.985077,794.565186 424.798309,796.397217 424.835663,798.225769 
	C424.901733,801.459229 423.291748,802.623352 420.191711,802.526733 
	C416.030029,802.397095 411.859589,802.423218 407.696106,802.520691 
	C404.774536,802.588989 403.383636,801.226868 403.253754,798.402588 
	C403.184967,796.906799 403.087189,795.410156 403.086761,793.913879 
	C403.077118,761.920532 403.073456,729.927185 403.083618,697.933838 
	C403.086243,689.754944 403.722168,689.696472 411.826111,688.871460 
	C423.245880,687.708984 431.962036,690.810974 439.814789,699.837891 
	C450.832916,712.503540 463.307068,723.906799 475.252167,735.755554 
	C476.568329,737.061096 478.498016,737.748108 480.143127,738.721985 
	C480.637848,736.913208 481.543335,735.108459 481.561310,733.294922 
	C481.688263,720.465515 481.794250,707.631165 481.544434,694.805420 
	C481.462341,690.589966 483.168976,689.218384 487.002319,688.972351 
	C503.220215,687.931580 503.218140,687.887695 503.217224,703.885071 
	C503.215454,734.878662 503.125488,765.872681 503.308624,796.865173 
	C503.334778,801.295044 501.977966,802.852173 497.654480,802.559998 
	C493.673248,802.290894 489.660004,802.466125 485.661255,802.496277 
	C482.746002,802.518311 481.528778,801.249939 481.599335,798.228821 
	C481.751007,791.733887 481.451447,785.225830 481.696259,778.736633 
	C481.847534,774.725891 480.436127,771.795959 477.637421,769.029053 
	C464.367981,755.910400 451.226929,742.661804 437.787415,729.211792 
z"/>
<path fill="#D83C2E" opacity="1.000000" stroke="none" 
	d="
M222.777176,759.222534 
	C209.074005,745.515015 195.622955,732.055420 182.171906,718.595825 
	C181.668839,718.835754 181.165771,719.075684 180.662704,719.315552 
	C180.453384,721.330688 180.065735,723.345581 180.061966,725.361084 
	C180.018143,748.856445 180.045731,772.351807 180.022186,795.847229 
	C180.015564,802.444824 179.952667,802.465149 173.268951,802.506653 
	C170.436279,802.524231 167.581863,802.289185 164.775482,802.561829 
	C160.044327,803.021484 158.435486,801.311157 158.467850,796.390991 
	C158.671722,765.398438 158.569489,734.403809 158.569824,703.409912 
	C158.569855,700.243896 158.656708,697.075562 158.561142,693.912537 
	C158.476578,691.113464 159.531036,689.288818 162.468613,689.273376 
	C169.122223,689.238403 175.794144,689.113281 182.419327,689.581055 
	C184.229980,689.708923 186.131668,691.578125 187.600906,693.040649 
	C201.532990,706.908813 215.380432,720.861938 229.253357,734.789551 
	C229.958801,735.497681 230.578949,736.350403 231.407913,736.861572 
	C232.606216,737.600647 233.959183,738.088928 235.246155,738.684204 
	C235.717087,737.362671 236.573105,736.047729 236.595612,734.718567 
	C236.728241,726.888977 236.666611,719.056091 236.670685,711.224304 
	C236.673645,705.558777 236.869980,699.884399 236.612717,694.230713 
	C236.439545,690.424622 238.275726,689.155029 241.609253,689.017822 
	C241.775757,689.010986 241.942566,689.009949 242.108795,688.999207 
	C258.243469,687.960022 258.243103,687.959961 258.243530,703.963257 
	C258.244415,734.790527 258.133698,765.618713 258.360596,796.444275 
	C258.397064,801.399597 256.794067,802.628662 252.108902,802.604126 
	C236.671494,802.523254 235.964050,802.638489 236.909485,787.663818 
	C237.582947,776.997009 234.739731,768.889954 226.222107,762.632874 
	C225.027939,761.755615 224.087311,760.533203 222.777176,759.222534 
z"/>
<path fill="#D73A2C" opacity="1.000000" stroke="none" 
	d="
M790.776062,689.289917 
	C794.995483,688.937744 797.690979,690.390625 800.387573,693.175415 
	C814.390930,707.636597 828.627075,721.873108 842.868103,736.101868 
	C844.044128,737.276917 845.861023,737.810608 847.380249,738.642273 
	C847.880615,737.012817 848.799133,735.387329 848.815002,733.753113 
	C848.937500,721.096130 849.037781,708.434631 848.808655,695.780640 
	C848.723816,691.097656 850.213196,689.226318 855.069824,689.204163 
	C870.504761,689.133789 870.503784,688.995239 870.504211,704.226318 
	C870.505127,734.872498 870.383911,765.519592 870.626953,796.163818 
	C870.667908,801.337524 869.034851,803.017700 864.096558,802.558655 
	C860.628662,802.236328 857.106018,802.440369 853.609680,802.504761 
	C850.279297,802.565979 848.778687,801.147278 848.853394,797.694946 
	C848.993835,791.202393 849.248352,784.675354 848.725525,778.221802 
	C848.479980,775.190186 847.294739,771.565002 845.249573,769.455383 
	C829.388123,753.093994 813.217285,737.032532 797.122009,720.898376 
	C796.210571,719.984680 795.121094,719.248535 793.185974,717.674561 
	C792.814270,720.507446 792.338257,722.464844 792.333862,724.423279 
	C792.280273,748.407104 792.174072,772.392212 792.395325,796.374146 
	C792.440186,801.230774 790.907471,802.620789 786.145630,802.595520 
	C770.795837,802.514038 770.794861,802.686218 770.794983,787.450439 
	C770.795227,757.137390 770.789734,726.824341 770.800232,696.511292 
	C770.802612,689.781250 771.256714,689.328430 777.818359,689.291138 
	C781.982117,689.267517 786.146179,689.286987 790.776062,689.289917 
z"/>
<path fill="#D83B2D" opacity="1.000000" stroke="none" 
	d="
M682.358521,702.014404 
	C684.686279,689.727905 692.819702,688.342651 703.133179,689.055176 
	C709.050781,689.463989 712.412659,690.397705 714.988708,696.658020 
	C725.610352,722.471497 737.079590,747.936157 748.241394,773.527222 
	C751.227478,780.373474 754.275269,787.193420 757.195557,794.067505 
	C758.152527,796.319946 758.795837,798.705627 759.953674,802.126953 
	C752.143127,802.126953 745.115906,802.315430 738.119324,801.937256 
	C736.983337,801.875793 735.657715,799.445068 734.969421,797.869324 
	C726.180969,777.750061 717.505676,757.581299 708.771179,737.438293 
	C706.268799,731.667358 703.669067,725.938538 700.616638,719.071655 
	C698.906860,721.220337 697.548706,722.356995 696.913879,723.809753 
	C686.136658,748.474731 675.416870,773.165100 664.782715,797.892151 
	C663.449524,800.992249 661.765869,802.777039 658.105713,802.557800 
	C653.787903,802.299255 649.441895,802.552734 645.109741,802.482727 
	C640.178040,802.403137 639.444092,801.423401 641.418091,796.781738 
	C647.736511,781.923950 654.200623,767.128174 660.606934,752.307861 
	C667.803955,735.658264 674.999146,719.007812 682.358521,702.014404 
z"/>
<path fill="#E3746B" opacity="1.000000" stroke="none" 
	d="
M550.489868,795.428833 
	C537.029785,786.956238 527.623779,775.738586 523.595398,760.476929 
	C518.617249,741.617065 522.538330,724.607666 534.737122,709.537292 
	C542.832825,699.535889 553.372009,693.008240 565.790344,689.960144 
	C570.890503,688.708313 576.350464,688.638916 581.654785,688.558960 
	C594.309570,688.367981 606.970093,688.578674 619.626160,688.437744 
	C623.941772,688.389709 625.821472,689.636475 625.795715,694.432251 
	C625.612427,728.573608 625.614441,762.716858 625.789917,796.858276 
	C625.813904,801.529602 624.223816,802.969238 619.756653,802.908386 
	C606.268677,802.724548 592.771118,802.588928 579.288269,802.904297 
	C569.009521,803.144592 559.708801,800.350647 550.489868,795.428833 
M529.071777,723.775696 
	C528.065674,726.755371 526.586609,729.664978 526.133362,732.726501 
	C523.895447,747.843140 524.675537,762.501282 533.753479,775.652832 
	C542.287048,788.015747 553.470764,797.188965 568.560791,798.835083 
	C584.690369,800.594604 601.035522,800.353149 617.282043,801.084839 
	C621.044617,801.254272 622.174316,799.613525 622.165588,796.031799 
	C622.083740,762.381348 622.079895,728.730530 622.175598,695.080200 
	C622.185059,691.754456 621.005615,690.788879 617.814209,690.821350 
	C603.988892,690.962036 590.150940,690.602905 576.340454,691.082397 
	C571.175964,691.261780 565.895264,692.729126 560.976501,694.478088 
	C546.566345,699.601929 536.261719,709.493164 529.071777,723.775696 
z"/>
<path fill="#F4C7C3" opacity="1.000000" stroke="none" 
	d="
M276.743225,779.716431 
	C285.387665,759.524780 293.819672,739.655640 302.341797,719.825256 
	C306.337677,710.527039 310.221527,701.158508 314.794342,692.145691 
	C315.970795,689.827087 319.412994,687.687744 322.080017,687.301636 
	C327.302338,686.545654 332.719299,686.910156 338.041077,687.143860 
	C341.568542,687.298706 343.735138,689.068542 345.184021,692.769104 
	C349.325500,703.346680 354.138031,713.660278 358.624359,724.104431 
	C366.472717,742.375366 374.245331,760.678833 382.112457,778.941650 
	C384.709564,784.970581 387.443176,790.942749 390.220581,796.891296 
	C392.441620,801.648132 391.820374,803.316467 386.564514,803.704590 
	C381.100159,804.107971 375.564880,804.011108 370.092194,803.651917 
	C367.234802,803.464355 364.862213,802.543579 363.369049,798.979004 
	C353.040497,774.322083 342.299408,749.837891 331.669983,725.307190 
	C331.354370,724.578857 330.808502,723.950256 329.812592,722.416931 
	C327.361908,727.456848 325.071350,731.832947 323.074066,736.338989 
	C317.545441,748.812012 312.106445,761.325195 306.696106,773.850159 
	C303.099335,782.176819 299.838806,790.659363 295.923462,798.830505 
	C294.898834,800.968750 292.136261,803.351807 289.922211,803.629089 
	C284.511993,804.306458 278.931671,804.131897 273.465302,803.710449 
	C268.111267,803.297668 267.453522,801.562012 269.634613,796.596252 
	C272.038513,791.123169 274.264313,785.571899 276.743225,779.716431 
M273.485382,793.065491 
	C272.558929,795.778076 271.632477,798.490662 270.371674,802.182129 
	C276.957062,802.182129 282.413300,802.012329 287.852722,802.241760 
	C291.476257,802.394653 293.318604,800.665771 294.636871,797.599731 
	C305.393555,772.581970 316.178711,747.576355 327.055176,722.610535 
	C327.725769,721.071350 329.242126,719.900635 330.843109,717.986877 
	C332.382751,721.379456 333.434021,723.612549 334.417236,725.875305 
	C344.943939,750.100098 355.427612,774.343811 366.059113,798.522461 
	C366.696259,799.971436 368.437714,801.851562 369.757599,801.927429 
	C375.998718,802.286621 382.271942,802.087708 389.271729,802.087708 
	C388.571106,799.308960 388.347992,797.335632 387.593414,795.592407 
	C372.952606,761.769714 358.226715,727.983765 343.598267,694.155762 
	C342.266205,691.075439 340.415466,689.194885 336.943756,689.208313 
	C332.281250,689.226379 327.617249,689.145874 322.956421,689.236145 
	C319.688660,689.299438 317.797455,690.757629 316.374359,694.085876 
	C302.339203,726.909607 288.052246,759.625671 273.485382,793.065491 
z"/>
<path fill="#FEFCFC" opacity="1.000000" stroke="none" 
	d="
M429.245361,338.754700 
	C435.848175,345.370758 442.404663,351.552765 448.430603,358.214661 
	C450.332031,360.316772 451.772369,363.695801 451.795868,366.504028 
	C452.034393,394.981903 452.029724,423.463013 451.904938,451.942383 
	C451.778107,480.891785 429.216766,504.822876 400.370758,505.695190 
	C375.470093,506.448120 353.041016,489.957001 347.066498,465.265320 
	C345.598450,459.198090 344.933960,452.795837 344.907288,446.543304 
	C344.734436,406.072693 344.744568,365.600372 344.969666,325.130127 
	C344.999695,319.733154 345.992310,314.165375 347.566101,308.988892 
	C351.116455,297.311340 367.020081,288.869934 380.677338,297.004425 
	C393.833069,304.840240 404.778809,315.214874 415.855743,325.501404 
	C420.368774,329.692383 424.622314,334.162872 429.245361,338.754700 
z"/>
<path fill="#FEFCFC" opacity="1.000000" stroke="none" 
	d="
M673.448975,170.566391 
	C684.864868,180.964676 690.811279,193.636475 690.956116,208.682983 
	C691.212708,235.336426 691.038513,261.993713 691.170532,288.648804 
	C691.236450,301.963715 691.834473,315.279968 691.693176,328.590332 
	C691.621277,335.370483 690.943054,342.233704 689.670837,348.893524 
	C686.749451,364.186310 670.232666,370.906677 654.948303,362.842407 
	C649.288452,359.856201 643.878479,355.956238 639.248657,351.536499 
	C621.781921,334.862518 604.607727,317.878387 587.553467,300.781494 
	C585.694153,298.917511 584.417603,295.580231 584.395264,292.913513 
	C584.167603,265.759979 584.183838,238.603592 584.277405,211.448502 
	C584.364258,186.236008 598.298584,166.061844 622.459778,159.023590 
	C640.855225,153.664902 658.414185,156.952225 673.448975,170.566391 
z"/>
<path fill="#D63526" opacity="1.000000" stroke="none" 
	d="
M529.261292,723.442871 
	C536.261719,709.493164 546.566345,699.601929 560.976501,694.478088 
	C565.895264,692.729126 571.175964,691.261780 576.340454,691.082397 
	C590.150940,690.602905 603.988892,690.962036 617.814209,690.821350 
	C621.005615,690.788879 622.185059,691.754456 622.175598,695.080200 
	C622.079895,728.730530 622.083740,762.381348 622.165588,796.031799 
	C622.174316,799.613525 621.044617,801.254272 617.282043,801.084839 
	C601.035522,800.353149 584.690369,800.594604 568.560791,798.835083 
	C553.470764,797.188965 542.287048,788.015747 533.753479,775.652832 
	C524.675537,762.501282 523.895447,747.843140 526.133362,732.726501 
	C526.586609,729.664978 528.065674,726.755371 529.261292,723.442871 
M592.438171,709.399109 
	C585.186462,710.069946 577.762817,709.978821 570.718201,711.567749 
	C555.323547,715.039978 543.279541,730.623474 543.414856,745.679871 
	C543.562195,762.075928 556.033752,777.597534 572.387024,780.428223 
	C580.666626,781.861389 589.253906,781.452942 597.684814,782.101074 
	C602.435242,782.466248 604.128052,780.699463 604.074707,775.865906 
	C603.869080,757.234680 603.995483,738.599792 603.997131,719.966309 
	C603.998108,709.402405 603.997192,709.402405 592.438171,709.399109 
z"/>
<path fill="#E16D63" opacity="1.000000" stroke="none" 
	d="
M273.661011,792.718872 
	C288.052246,759.625671 302.339203,726.909607 316.374359,694.085876 
	C317.797455,690.757629 319.688660,689.299438 322.956421,689.236145 
	C327.617249,689.145874 332.281250,689.226379 336.943756,689.208313 
	C340.415466,689.194885 342.266205,691.075439 343.598267,694.155762 
	C358.226715,727.983765 372.952606,761.769714 387.593414,795.592407 
	C388.347992,797.335632 388.571106,799.308960 389.271729,802.087708 
	C382.271942,802.087708 375.998718,802.286621 369.757599,801.927429 
	C368.437714,801.851562 366.696259,799.971436 366.059113,798.522461 
	C355.427612,774.343811 344.943939,750.100098 334.417236,725.875305 
	C333.434021,723.612549 332.382751,721.379456 330.843109,717.986877 
	C329.242126,719.900635 327.725769,721.071350 327.055176,722.610535 
	C316.178711,747.576355 305.393555,772.581970 294.636871,797.599731 
	C293.318604,800.665771 291.476257,802.394653 287.852722,802.241760 
	C282.413300,802.012329 276.957062,802.182129 270.371674,802.182129 
	C271.632477,798.490662 272.558929,795.778076 273.661011,792.718872 
M298.839966,740.340637 
	C297.957947,742.111572 296.996216,743.847778 296.206482,745.658936 
	C289.752869,760.459290 283.486481,775.343689 276.845764,790.059326 
	C272.387177,799.939270 272.352356,800.152161 283.130981,800.148132 
	C284.297241,800.147705 285.651184,800.527344 286.591309,800.065491 
	C288.641602,799.058411 291.323029,798.061584 292.251801,796.280884 
	C295.234192,790.563232 297.527557,784.487000 300.103851,778.556519 
	C308.497406,759.234985 316.833832,739.887939 325.400421,720.643372 
	C326.222473,718.796692 328.335541,716.743103 330.152008,716.403076 
	C331.309174,716.186523 333.622986,718.688843 334.395752,720.426697 
	C340.562622,734.294617 346.484894,748.271423 352.482361,762.214722 
	C357.555939,774.010132 362.584320,785.825562 367.772400,797.570435 
	C368.304047,798.774048 369.778717,800.374268 370.839294,800.392029 
	C375.733917,800.474365 380.636871,800.061340 386.118927,799.798035 
	C385.328278,797.507690 384.854370,795.776794 384.149323,794.145813 
	C371.227722,764.253418 358.233154,734.392456 345.355072,704.481384 
	C339.410797,690.675049 339.509369,690.746277 324.397675,690.825500 
	C320.953094,690.843567 319.286469,692.278870 318.053986,695.166382 
	C311.728577,709.986023 305.326324,724.772766 298.839966,740.340637 
z"/>
<path fill="#FDF7F7" opacity="1.000000" stroke="none" 
	d="
M592.915161,709.399414 
	C603.997192,709.402405 603.998108,709.402405 603.997131,719.966309 
	C603.995483,738.599792 603.869080,757.234680 604.074707,775.865906 
	C604.128052,780.699463 602.435242,782.466248 597.684814,782.101074 
	C589.253906,781.452942 580.666626,781.861389 572.387024,780.428223 
	C556.033752,777.597534 543.562195,762.075928 543.414856,745.679871 
	C543.279541,730.623474 555.323547,715.039978 570.718201,711.567749 
	C577.762817,709.978821 585.186462,710.069946 592.915161,709.399414 
z"/>
<path fill="#D53021" opacity="1.000000" stroke="none" 
	d="
M298.895447,739.955811 
	C305.326324,724.772766 311.728577,709.986023 318.053986,695.166382 
	C319.286469,692.278870 320.953094,690.843567 324.397675,690.825500 
	C339.509369,690.746277 339.410797,690.675049 345.355072,704.481384 
	C358.233154,734.392456 371.227722,764.253418 384.149323,794.145813 
	C384.854370,795.776794 385.328278,797.507690 386.118927,799.798035 
	C380.636871,800.061340 375.733917,800.474365 370.839294,800.392029 
	C369.778717,800.374268 368.304047,798.774048 367.772400,797.570435 
	C362.584320,785.825562 357.555939,774.010132 352.482361,762.214722 
	C346.484894,748.271423 340.562622,734.294617 334.395752,720.426697 
	C333.622986,718.688843 331.309174,716.186523 330.152008,716.403076 
	C328.335541,716.743103 326.222473,718.796692 325.400421,720.643372 
	C316.833832,739.887939 308.497406,759.234985 300.103851,778.556519 
	C297.527557,784.487000 295.234192,790.563232 292.251801,796.280884 
	C291.323029,798.061584 288.641602,799.058411 286.591309,800.065491 
	C285.651184,800.527344 284.297241,800.147705 283.130981,800.148132 
	C272.352356,800.152161 272.387177,799.939270 276.845764,790.059326 
	C283.486481,775.343689 289.752869,760.459290 296.206482,745.658936 
	C296.996216,743.847778 297.957947,742.111572 298.895447,739.955811 
z"/>
</svg>